<?xml version="1.0" encoding="UTF-8"?><svg id="Layer_1" xmlns="http://www.w3.org/2000/svg" xmlns:xlink="http://www.w3.org/1999/xlink" viewBox="0 0 1920 1080"><defs><style>.cls-1,.cls-2{fill:none;}.cls-3{fill:url(#linear-gradient);}.cls-4{clip-path:url(#clippath);}.cls-5{fill:#e6e7e8;}.cls-6{opacity:.25;}.cls-7{opacity:.44;}.cls-2{stroke:url(#linear-gradient-2);stroke-miterlimit:10;stroke-width:5.71px;}</style><clipPath id="clippath"><rect class="cls-1" x="226.96" y="-6" width="1693.04" height="1086"/></clipPath><linearGradient id="linear-gradient" x1="1750.49" y1="-131.93" x2="1856.35" y2="1856.65" gradientTransform="matrix(1, 0, 0, 1, 0, 0)" gradientUnits="userSpaceOnUse"><stop offset="0" stop-color="#00abcc"/><stop offset=".68" stop-color="#1a4698"/><stop offset="1" stop-color="#2e3191"/></linearGradient><linearGradient id="linear-gradient-2" x1="973.22" y1="660.43" x2="1891.09" y2="501.97" gradientTransform="matrix(1, 0, 0, 1, 0, 0)" gradientUnits="userSpaceOnUse"><stop offset="0" stop-color="#ffd300"/><stop offset=".55" stop-color="#ec0d6d"/><stop offset=".57" stop-color="#e60e6e"/><stop offset=".81" stop-color="#a82085"/><stop offset=".92" stop-color="#90278e"/></linearGradient></defs><g class="cls-6"><g class="cls-4"><path class="cls-3" d="M970.74,540.46l461.7-338.95L1663.85,31.6c77.1-56.79,154.83-112.93,232.2-169.41l2.77-2.02,2.02,2.77,281.75,386.79-4.79-.75,.21-.15,2.77-2.02,2.02,2.77,183.92,252.48,2.02,2.77-2.77,2.02-.21,.15,.75-4.79,249.65,342.72,2.02,2.77-2.77,2.02-259.03,188.69-2.8,2.04-2.01-2.81L1826.71,303.36l4.81,.78-422.36,307.66,.75-4.79,768.78,1055.38,2.02,2.77-2.77,2.02-252.48,183.92-2.77,2.02-2.02-2.77-238.5-327.52c-79.39-109.21-159.31-218.32-238.03-327.72l-473.4-654.65Zm0,0l479.3,653.22c80.06,108.58,158.93,217.45,238.32,326.22l237.85,326.41-4.79-.75,252.48-183.92-.75,4.79L1404.37,611.05l-2.02-2.77,2.77-2.02,422.36-307.66,2.8-2.04,2.01,2.81,524.86,734.28-4.81-.78,259.03-188.69-.75,4.79-249.65-342.72-2.02-2.77,2.77-2.02,.21-.15-.75,4.79-183.92-252.49,4.79,.75-.21,.15-2.77,2.02-2.02-2.77-281.75-386.79,4.79,.75c-77.18,56.11-154,112.55-231.46,168.34l-232.26,167.83-465.63,336.55Z"/><g class="cls-7"><path class="cls-5" d="M895.49,785.89L2053.42-60.62l1.98-1.44,1.45,1.98,352.78,483.19-4.34-.68,.27-.19,2.5-1.83,1.83,2.51,230.22,315.46,2.03,2.78-2.78,2.03-.27,.19,.76-4.81,312.4,428.27,2.23,3.06-3.06,2.23-323.72,236.07-3.26,2.38c-.86-1.63-657.34-918.86-658.76-921.15l5.98,.97-528.09,384.59,.92-5.86c2.04,2.8,960.7,1320.12,962.58,1322.69,0,0-2.78,2.03-2.78,2.03l-315.86,229.66-2.52,1.83-1.82-2.51c-296.06-408.17-892.82-1228.77-1188.58-1636.96h0Zm0,0c297.99,406.71,896.1,1226.42,1193.61,1633.3l-4.34-.68,315.46-230.22c4.4,24.68-962.37-1321.01-962.52-1314.2,0-.01-2.47-3.4-2.47-3.4l3.39-2.47,528-384.71,3.48-2.53,2.5,3.5,655.98,918.17-5.61-.91,323.97-235.73-.83,5.29-311.84-428.68-2.03-2.79,2.78-2.02,.27-.19-.76,4.81-229.67-315.86,4.34,.68-.27,.19-2.51,1.83-1.82-2.51L2052.88-57.2l3.42,.54L895.49,785.89h0Z"/></g><polygon class="cls-2" points="1311.19 214.46 1510.33 63.92 1900.71 580.33 1174.26 1129.5 1023.72 930.37 1551.04 531.73 1311.19 214.46"/></g></g></svg>