<svg xmlns="http://www.w3.org/2000/svg" width="19.625" height="19.66" viewBox="0 0 19.625 19.66">
  <path id="contact-us" d="M14.671,5.056a4.445,4.445,0,0,1,3.512,3.512M14.671,1.5a8,8,0,0,1,7.068,7.059m-.889,7.095v2.667A1.778,1.778,0,0,1,18.912,20.1a17.6,17.6,0,0,1-7.673-2.729A17.337,17.337,0,0,1,5.9,12.036,17.6,17.6,0,0,1,3.175,4.327,1.778,1.778,0,0,1,4.944,2.389H7.612A1.778,1.778,0,0,1,9.39,3.918a11.416,11.416,0,0,0,.622,2.5,1.778,1.778,0,0,1-.4,1.876L8.483,9.422a14.225,14.225,0,0,0,5.335,5.335l1.129-1.129a1.778,1.778,0,0,1,1.876-.4,11.416,11.416,0,0,0,2.5.622A1.778,1.778,0,0,1,20.85,15.654Z" transform="translate(-2.667 -0.948)" fill="none" stroke="#000" stroke-linecap="round" stroke-linejoin="round" stroke-width="1"/>
</svg>
