<?xml version="1.0" encoding="UTF-8"?><svg id="Layer_1" xmlns="http://www.w3.org/2000/svg" xmlns:xlink="http://www.w3.org/1999/xlink" viewBox="0 0 1920 1080"><defs><style>.cls-1,.cls-2{fill:none;}.cls-3{fill:url(#linear-gradient);}.cls-4{clip-path:url(#clippath);}.cls-5{fill:#e6e7e8;}.cls-6{clip-path:url(#clippath-1);}.cls-7{fill:url(#linear-gradient-2);}.cls-8{opacity:.25;}.cls-9{opacity:.44;}.cls-2{stroke:url(#linear-gradient-3);stroke-miterlimit:10;stroke-width:5.71px;}</style><clipPath id="clippath"><rect class="cls-1" x="226.96" y="-1429" width="1693.04" height="1086"/></clipPath><linearGradient id="linear-gradient" x1="1750.49" y1="-1554.93" x2="1856.35" y2="433.65" gradientTransform="matrix(1, 0, 0, 1, 0, 0)" gradientUnits="userSpaceOnUse"><stop offset="0" stop-color="#00abcc"/><stop offset=".68" stop-color="#1a4698"/><stop offset="1" stop-color="#2e3191"/></linearGradient><clipPath id="clippath-1"><rect class="cls-1" x="0" y="-6" width="1693.04" height="1086" transform="translate(1693.05 1074) rotate(180)"/></clipPath><linearGradient id="linear-gradient-2" x1="169.51" y1="-131.93" x2="63.66" y2="1856.65" xlink:href="#linear-gradient"/><linearGradient id="linear-gradient-3" x1="1200.17" y1="660.43" x2="2118.05" y2="501.97" gradientTransform="translate(2146.96) rotate(-180) scale(1 -1)" gradientUnits="userSpaceOnUse"><stop offset="0" stop-color="#ffd300"/><stop offset=".55" stop-color="#ec0d6d"/><stop offset=".57" stop-color="#e60e6e"/><stop offset=".81" stop-color="#a82085"/><stop offset=".92" stop-color="#90278e"/></linearGradient></defs><g class="cls-8"><g class="cls-4"><path class="cls-3" d="M970.74-882.54l461.7-338.95,231.4-169.92c77.1-56.79,154.83-112.93,232.2-169.41l2.77-2.02,2.02,2.77,281.75,386.79-4.79-.75,.21-.15,2.77-2.02,2.02,2.77,183.92,252.48,2.02,2.77-2.77,2.02-.21,.15,.75-4.79,249.65,342.72,2.02,2.77-2.77,2.02-259.03,188.69-2.8,2.04-2.01-2.81-524.86-734.28,4.81,.78-422.36,307.66,.75-4.79L2178.7,239.39l2.02,2.77-2.77,2.02-252.48,183.92-2.77,2.02-2.02-2.77-238.5-327.52c-79.39-109.21-159.31-218.32-238.03-327.72l-473.4-654.65Zm0,0L1450.05-229.32c80.06,108.58,158.93,217.45,238.32,326.22l237.85,326.41-4.79-.75,252.48-183.92-.75,4.79L1404.37-811.95l-2.02-2.77,2.77-2.02,422.36-307.66,2.8-2.04,2.01,2.81,524.86,734.28-4.81-.78,259.03-188.69-.75,4.79-249.65-342.72-2.02-2.77,2.77-2.02,.21-.15-.75,4.79-183.92-252.49,4.79,.75-.21,.15-2.77,2.02-2.02-2.77-281.75-386.79,4.79,.75c-77.18,56.11-154,112.55-231.46,168.34l-232.26,167.83-465.63,336.55Z"/><g class="cls-9"><path class="cls-5" d="M895.49-637.11l1157.93-846.51,1.98-1.44,1.45,1.98,352.78,483.19-4.34-.68,.27-.19,2.5-1.83,1.83,2.51,230.22,315.46,2.03,2.78-2.78,2.03-.27,.19,.76-4.81,312.4,428.27,2.23,3.06-3.06,2.23L2627.69-14.78l-3.26,2.38c-.86-1.63-657.34-918.86-658.76-921.15l5.98,.97-528.09,384.59,.92-5.86c2.04,2.8,960.7,1320.12,962.58,1322.69,0,0-2.78,2.03-2.78,2.03l-315.86,229.66-2.52,1.83-1.82-2.51C1788.02,591.69,1191.25-228.92,895.49-637.11h0Zm0,0c297.99,406.71,896.1,1226.42,1193.61,1633.3l-4.34-.68,315.46-230.22c4.4,24.68-962.37-1321.01-962.52-1314.2,0-.01-2.47-3.4-2.47-3.4l3.39-2.47,528-384.71,3.48-2.53,2.5,3.5L2628.58-20.34l-5.61-.91,323.97-235.73-.83,5.29-311.84-428.68-2.03-2.79,2.78-2.02,.27-.19-.76,4.81-229.67-315.86,4.34,.68-.27,.19-2.51,1.83-1.82-2.51-351.73-483.96,3.42,.54L895.49-637.11h0Z"/></g></g></g><g class="cls-8"><g class="cls-6"><path class="cls-7" d="M949.26,540.46L483.64,203.91,251.38,36.08C173.92-19.72,97.1-76.16,19.92-132.27l4.79-.75L-257.05,253.77l-2.02,2.77-2.77-2.02-.21-.16,4.79-.75-183.92,252.48-.75-4.79,.21,.16,2.77,2.02-2.02,2.77-249.65,342.72-.75-4.79,259.03,188.69-4.81,.78L87.71,299.37l2.01-2.81,2.8,2.04,422.36,307.66,2.77,2.02-2.02,2.77L-253.15,1666.43l-.75-4.79L-1.42,1845.56l-4.79,.75,237.85-326.41c79.39-108.76,158.26-217.63,238.32-326.22l479.3-653.22Zm0,0l-473.4,654.65c-78.72,109.39-158.64,218.5-238.03,327.72L-.67,1850.35l-2.02,2.77-2.77-2.02-252.48-183.92-2.77-2.02,2.02-2.77L510.09,607.01l.75,4.79L88.48,304.14l4.81-.78L-431.57,1037.64l-2.01,2.81-2.8-2.04-259.03-188.69-2.77-2.02,2.02-2.77,249.65-342.72,.75,4.79-.21-.15-2.77-2.02,2.02-2.77,183.92-252.48,2.02-2.77,2.77,2.02,.21,.15-4.79,.75L19.16-137.06l2.02-2.77,2.77,2.02C101.32-81.33,179.06-25.19,256.16,31.6l231.4,169.92,461.7,338.95Z"/><g class="cls-9"><path class="cls-5" d="M1024.51,785.89L-136.3-56.66l3.42-.54L-484.6,426.77l-1.82,2.51-2.51-1.83-.27-.19,4.34-.68-229.67,315.86-.76-4.81,.27,.19,2.78,2.02-2.03,2.79-311.84,428.68-.83-5.29,323.97,235.73-5.61,.91L-52.6,484.49l2.5-3.5,3.48,2.53L481.38,868.23l3.39,2.47-2.47,3.39c-3.21-4.66-964.42,1336.1-962.51,1314.22,0,0,315.46,230.21,315.46,230.21l-4.34,.68C127.93,2011.72,727.16,1192.99,1024.51,785.89h0Zm0,0C728.08,1193.75,132.52,2015.23-164.07,2422.85l-1.82,2.51-2.52-1.83-315.86-229.66-2.79-2.03c1.7,.73,960.67-1322.29,962.58-1322.69,0,0,.92,5.85,.92,5.85L-51.64,490.41l5.98-.97c-4.17,5.94-654.93,915.72-658.76,921.15l-3.26-2.38-323.72-236.07-3.06-2.23,2.23-3.06,312.4-428.27,.76,4.81-.27-.19-2.78-2.03,2.03-2.78,230.22-315.46,1.83-2.51,2.5,1.83,.27,.19-4.34,.68L-136.84-60.08l1.45-1.98,1.98,1.44L1024.51,785.89h0Z"/></g><polygon class="cls-2" points="608.81 214.46 409.68 63.92 19.29 580.33 745.74 1129.5 896.28 930.37 368.97 531.73 608.81 214.46"/></g></g></svg>